<svg width="40" height="40" viewBox="0 0 40 40" fill="none" xmlns="http://www.w3.org/2000/svg">
<rect width="40" height="40" rx="8" fill="#F3FCF3"/>
<ellipse cx="20" cy="24.5" rx="6" ry="2.5" stroke="#46A758" stroke-width="1.5" stroke-linejoin="round"/>
<circle cx="20" cy="16" r="3" stroke="#46A758" stroke-width="1.5" stroke-linejoin="round"/>
<path fill-rule="evenodd" clip-rule="evenodd" d="M14.4455 21.2615C13.2069 21.313 12.0691 21.5361 11.1859 21.8894C10.6812 22.0913 10.2225 22.3505 9.87759 22.6766C9.53115 23.0042 9.25 23.4512 9.25 24C9.25 24.5488 9.53115 24.9958 9.87759 25.3234C10.2225 25.6495 10.6812 25.9087 11.1859 26.1106C11.6857 26.3105 12.267 26.4687 12.902 26.5778C12.4083 26.0453 12.0985 25.4503 12.0199 24.8195C11.9234 24.787 11.831 24.7531 11.743 24.7179C11.3429 24.5578 11.0694 24.386 10.9083 24.2336C10.7498 24.0837 10.75 24.0046 10.75 24.0001L10.75 24L10.75 23.9999C10.75 23.9954 10.7498 23.9163 10.9083 23.7664C11.0694 23.614 11.3429 23.4422 11.743 23.2821C11.946 23.201 12.172 23.1266 12.4179 23.0608C12.8316 22.371 13.5345 21.756 14.4455 21.2615Z" fill="#46A758"/>
<path fill-rule="evenodd" clip-rule="evenodd" d="M27.9802 24.8195C27.9015 25.4503 27.5917 26.0453 27.0981 26.5778C27.733 26.4687 28.3143 26.3105 28.8141 26.1106C29.3188 25.9087 29.7776 25.6495 30.1224 25.3234C30.4689 24.9958 30.75 24.5488 30.75 24C30.75 23.4512 30.4689 23.0042 30.1224 22.6766C29.7776 22.3505 29.3188 22.0913 28.8141 21.8894C27.9309 21.5361 26.7931 21.313 25.5546 21.2615C26.4656 21.756 27.1685 22.371 27.5822 23.0608C27.828 23.1266 28.0541 23.201 28.257 23.2821C28.6571 23.4422 28.9306 23.614 29.0918 23.7664C29.2502 23.9163 29.25 23.9954 29.25 23.9999V24V24.0001C29.25 24.0046 29.2502 24.0837 29.0918 24.2336C28.9306 24.386 28.6571 24.5578 28.257 24.7179C28.169 24.7531 28.0766 24.787 27.9802 24.8195Z" fill="#46A758"/>
<path fill-rule="evenodd" clip-rule="evenodd" d="M24.5144 18.1522C24.2945 18.6126 24.0063 19.0341 23.6628 19.4036C24.0586 19.6243 24.5146 19.75 25 19.75C26.5188 19.75 27.75 18.5188 27.75 17C27.75 15.4812 26.5188 14.25 25 14.25C24.8957 14.25 24.7928 14.2558 24.6915 14.2671C24.8636 14.7327 24.9683 15.231 24.9939 15.75C24.9959 15.75 24.9979 15.75 25 15.75C25.6904 15.75 26.25 16.3096 26.25 17C26.25 17.6904 25.6904 18.25 25 18.25C24.8278 18.25 24.6637 18.2152 24.5144 18.1522Z" fill="#46A758"/>
<path fill-rule="evenodd" clip-rule="evenodd" d="M15.3084 14.2671C15.2072 14.2558 15.1043 14.25 15 14.25C13.4812 14.25 12.25 15.4812 12.25 17C12.25 18.5188 13.4812 19.75 15 19.75C15.4854 19.75 15.9414 19.6243 16.3372 19.4036C15.9937 19.0341 15.7055 18.6126 15.4856 18.1522C15.3363 18.2152 15.1722 18.25 15 18.25C14.3096 18.25 13.75 17.6904 13.75 17C13.75 16.3096 14.3096 15.75 15 15.75C15.002 15.75 15.0041 15.75 15.0061 15.75C15.0317 15.231 15.1364 14.7327 15.3084 14.2671Z" fill="#46A758"/>
</svg>
