<svg width="40" height="40" viewBox="0 0 40 40" fill="none" xmlns="http://www.w3.org/2000/svg">
<rect width="40" height="40" rx="8" fill="#F3FCF3"/>
<path d="M10 15H13M20 16H26M20 20H26M20 24H23M19 29H27C28.6569 29 30 27.6569 30 26V14C30 12.3431 28.6569 11 27 11H19C17.3431 11 16 12.3431 16 14V26C16 27.6569 17.3431 29 19 29ZM11.5 29L12.3282 27.7577C12.7662 27.1006 13 26.3286 13 25.5389V12.5C13 11.6716 12.3284 11 11.5 11C10.6716 11 10 11.6716 10 12.5V25.5389C10 26.3286 10.2338 27.1006 10.6718 27.7577L11.5 29Z" stroke="#46A758" stroke-width="1.5" stroke-linecap="round" stroke-linejoin="round"/>
</svg>
