<svg width="40" height="40" viewBox="0 0 40 40" fill="none" xmlns="http://www.w3.org/2000/svg">
<rect width="40" height="40" rx="8" fill="#F3FCF3"/>
<path d="M20 14.0534V28.3025M13 16.2546C14.2658 16.4507 15.6778 16.7766 17 17.2879M13 20.2546C13.6395 20.3537 14.3163 20.4859 15 20.6584M11.9943 11.0113C14.2127 11.2619 17.1931 11.9363 19.3168 13.4244C19.725 13.7105 20.275 13.7105 20.6832 13.4244C22.8069 11.9363 25.7873 11.2619 28.0057 11.0113C29.1036 10.8872 30 11.804 30 12.9352V24.2C30 25.3311 29.1036 26.2483 28.0057 26.3723C25.7873 26.623 22.8069 27.2974 20.6832 28.7855C20.275 29.0715 19.725 29.0715 19.3168 28.7855C17.1931 27.2974 14.2127 26.623 11.9943 26.3723C10.8964 26.2483 10 25.3311 10 24.2V12.9352C10 11.804 10.8964 10.8872 11.9943 11.0113Z" stroke="#46A758" stroke-width="1.5" stroke-linecap="round"/>
</svg>
